<svg xmlns="http://www.w3.org/2000/svg" viewBox="0 0 301.86 109.82"><defs><style>.cls-1{fill:#444180;}.cls-2{fill:#00b2d0;}</style></defs><title>Carusoseguros_logo</title><g id="Layer_2" data-name="Layer 2"><g id="Layer_1-2" data-name="Layer 1"><path class="cls-1" d="M222.07,48.32A23.55,23.55,0,0,0,215,47a8.3,8.3,0,0,0-4.45,1,3.35,3.35,0,0,0-1.64,3,4.25,4.25,0,0,0,2.36,3.9,36.17,36.17,0,0,0,7.29,2.79,63,63,0,0,1,8.12,2.9A14.39,14.39,0,0,1,232.1,65a12.08,12.08,0,0,1,2.26,7.66,13.17,13.17,0,0,1-2.43,8,15,15,0,0,1-6.68,5.07,25.47,25.47,0,0,1-9.65,1.72,33.06,33.06,0,0,1-11.44-2.06,32,32,0,0,1-7.76-4.1,3,3,0,0,1-.9-3.75l1.62-3.33A3,3,0,0,1,201.54,73a29.08,29.08,0,0,0,5.57,3.07,22.21,22.21,0,0,0,8.62,2A9.42,9.42,0,0,0,221,76.83a4,4,0,0,0,1.89-3.58,4.07,4.07,0,0,0-1.27-3.07,9.75,9.75,0,0,0-3.22-2c-1.3-.5-3.09-1.08-5.38-1.72a61.27,61.27,0,0,1-8-2.76,14.15,14.15,0,0,1-5.38-4.21A11.71,11.71,0,0,1,197.31,52a12.81,12.81,0,0,1,2.33-7.62,14.78,14.78,0,0,1,6.51-5,24.91,24.91,0,0,1,9.72-1.76A33.57,33.57,0,0,1,225.59,39a34.79,34.79,0,0,1,6,2.39,3,3,0,0,1,1.37,4L231.27,49a3,3,0,0,1-4,1.45A36.48,36.48,0,0,0,222.07,48.32Z"/><path class="cls-1" d="M161.27,74.74a10.35,10.35,0,0,0,7.77,3,9.92,9.92,0,0,0,7.53-2.94c1.87-2,2.81-4.68,2.81-8.15V40.56a3,3,0,0,1,3-3h4.9a3,3,0,0,1,3,3V66.63a22.15,22.15,0,0,1-2.57,10.92,17.5,17.5,0,0,1-7.36,7.12,24.09,24.09,0,0,1-11.3,2.5,24.52,24.52,0,0,1-11.37-2.5,17.63,17.63,0,0,1-7.46-7.12,21.94,21.94,0,0,1-2.6-10.92V40.56a3,3,0,0,1,3-3h4.9a3,3,0,0,1,3,3V66.63A11.1,11.1,0,0,0,161.27,74.74Z"/><path class="cls-1" d="M134.57,87.27a3,3,0,0,1-2.63-1.55l-8-14h-11V84.35a3,3,0,0,1-3,3h-4.8a3,3,0,0,1-3-3V40.44a3,3,0,0,1,3-3h17.8q9.39,0,14.52,4.35t5.14,12.29a18.56,18.56,0,0,1-2.3,9.49,14.73,14.73,0,0,1-6.68,6l8.49,13.08a3,3,0,0,1-2.53,4.64ZM112.9,62.63h10c3,0,5.33-.69,7-2.09a7.62,7.62,0,0,0,2.43-6.12,7.36,7.36,0,0,0-2.43-6c-1.62-1.34-3.93-2-7-2h-10Z"/><path class="cls-1" d="M86.11,85.48l-2.38-6.1a2.76,2.76,0,0,0-2.55-1.79H62.71a2.76,2.76,0,0,0-2.55,1.79l-2.38,6.1a2.76,2.76,0,0,1-2.55,1.79H50.12a2.85,2.85,0,0,1-2.52-4L66,39.16a2.76,2.76,0,0,1,2.53-1.73h7.54a2.77,2.77,0,0,1,2.53,1.74L96.74,83.29a2.85,2.85,0,0,1-2.53,4H88.66A2.76,2.76,0,0,1,86.11,85.48ZM64.41,68.55H79.55L72,49.18Z"/><path class="cls-2" d="M205.13,17.39a1.35,1.35,0,0,0,1.8.82c1.21-.45,2.43-.9,3.66-1.32,26.5-9.09,52.15-9.6,72.52-2.31,7.11,2.54,16.44-.34,18.61-7,0-.14.09-.28.14-.41-21.28-8.89-48.63-9.87-75.1-.79a113.45,113.45,0,0,0-21.06,9.71,1.18,1.18,0,0,0-.57,1.32Z"/><path class="cls-2" d="M190.21,31.06c-1,.81.19,2.19,1.29,1.52A83.5,83.5,0,0,1,228.07,21c.75-.06,1.49-.13,2.24-.17,26.52-1.5,50.51,8.84,64.4,25.5l.14,0c6.67-1.68,8.49-9.57,3.09-13.52C281.76,21,260,14.31,236.49,15.64c-3.19.18-6.33.51-9.42,1a97.21,97.21,0,0,0-28.78,8.9A48,48,0,0,0,190.21,31.06Z"/><path class="cls-2" d="M160.8,108.61a4.12,4.12,0,0,1-1.91-3.76l0-.48h2.26s0,.07,0,.17a1.61,1.61,0,0,0,0,.33,2.48,2.48,0,0,0,1.22,2.24,6.15,6.15,0,0,0,3.25.76,6.83,6.83,0,0,0,3.47-.72,2.24,2.24,0,0,0,1.21-2,2,2,0,0,0-.63-1.49,4.62,4.62,0,0,0-1.58-.93c-.64-.22-1.49-.47-2.57-.74a31.45,31.45,0,0,1-3.23-1,5.5,5.5,0,0,1-2.1-1.4,3.43,3.43,0,0,1-.87-2.45,3.65,3.65,0,0,1,1.81-3.3,8.56,8.56,0,0,1,4.63-1.14,8.29,8.29,0,0,1,4.58,1.15,3.88,3.88,0,0,1,1.77,3.51v.29h-2.25v-.36a2.16,2.16,0,0,0-1.12-1.93,5.41,5.41,0,0,0-2.91-.7,6.76,6.76,0,0,0-3.05.58A1.84,1.84,0,0,0,161.62,97a1.74,1.74,0,0,0,.61,1.38,4.74,4.74,0,0,0,1.52.85,25.88,25.88,0,0,0,2.52.74,30.62,30.62,0,0,1,3.27,1,5.67,5.67,0,0,1,2.15,1.41,3.41,3.41,0,0,1,.88,2.42,4.27,4.27,0,0,1-1.85,3.86,10.77,10.77,0,0,1-9.92,0Z"/><path class="cls-2" d="M178.12,92.47h12.73v2.1H180.41V99.9h9.38V102h-9.38v5.72H191v2.1H178.12Z"/><path class="cls-2" d="M203.11,100.8h8.13v8.73h-1.78l-.17-1.86q-1.89,2.14-5.77,2.15-4.05,0-6.13-2.16c-1.38-1.44-2.07-3.62-2.07-6.52q0-8.67,8.35-8.67a9,9,0,0,1,5.5,1.54,5.21,5.21,0,0,1,2.07,4.47H208.9a3.49,3.49,0,0,0-1.4-3,6.45,6.45,0,0,0-3.83-1A5.9,5.9,0,0,0,199.18,96q-1.47,1.56-1.47,5.13v0q0,3.54,1.46,5.1a5.66,5.66,0,0,0,4.35,1.55,6,6,0,0,0,4.11-1.17,4.58,4.58,0,0,0,1.32-3.6v-.24h-5.84Z"/><path class="cls-2" d="M218.55,108.25a6.1,6.1,0,0,1-1.76-4.82v-11h2.29v11.08a4.21,4.21,0,0,0,1.17,3.22,4.67,4.67,0,0,0,3.32,1.1,4.72,4.72,0,0,0,3.35-1.11,4.18,4.18,0,0,0,1.18-3.21V92.47h2.29v11a6.13,6.13,0,0,1-1.76,4.82,7.34,7.34,0,0,1-5.06,1.57A7.26,7.26,0,0,1,218.55,108.25Z"/><path class="cls-2" d="M235.94,92.47h8.61a5.09,5.09,0,0,1,3.81,1.34,4.85,4.85,0,0,1,1.33,3.59,5.63,5.63,0,0,1-.81,3.06,4.5,4.5,0,0,1-2.23,1.85l3.81,7.51H247.9l-3.59-7.16h-6.08v7.16h-2.29Zm8.49,8.09a2.85,2.85,0,0,0,2.15-.83,3.21,3.21,0,0,0,.79-2.3,2.86,2.86,0,0,0-.75-2.12,3,3,0,0,0-2.19-.74h-6.2v6Z"/><path class="cls-2" d="M257.41,107.63q-2.16-2.19-2.16-6.49c0-2.86.72-5,2.16-6.48a9.59,9.59,0,0,1,12.2,0c1.44,1.45,2.16,3.62,2.16,6.48s-.72,5-2.16,6.48a9.57,9.57,0,0,1-12.2,0Zm10.48-1.37q1.51-1.58,1.52-5v-.1c0-2.33-.53-4-1.55-5.09a6.71,6.71,0,0,0-8.7,0c-1,1.07-1.53,2.76-1.55,5.09v.1q0,3.45,1.52,5a6.86,6.86,0,0,0,8.76,0Z"/><path class="cls-2" d="M279,108.6a4.21,4.21,0,0,1-1.9-3.81l0-.49h2.27s0,.07,0,.17a1.72,1.72,0,0,0,0,.34,2.51,2.51,0,0,0,1.22,2.26,6,6,0,0,0,3.24.77,6.89,6.89,0,0,0,3.48-.72,2.28,2.28,0,0,0,1.2-2.07,2,2,0,0,0-.62-1.5,4.49,4.49,0,0,0-1.58-.94c-.64-.23-1.5-.48-2.57-.76a29.12,29.12,0,0,1-3.24-1,5.51,5.51,0,0,1-2.09-1.42,3.49,3.49,0,0,1-.87-2.48,3.7,3.7,0,0,1,1.81-3.34A8.45,8.45,0,0,1,284,92.47a8.21,8.21,0,0,1,4.58,1.16,4,4,0,0,1,1.76,3.55v.3h-2.24v-.37a2.21,2.21,0,0,0-1.12-2,5.32,5.32,0,0,0-2.91-.71A6.74,6.74,0,0,0,281,95a1.9,1.9,0,0,0-1.15,1.76,1.79,1.79,0,0,0,.62,1.4,4.75,4.75,0,0,0,1.52.86q.9.33,2.52.75a31.84,31.84,0,0,1,3.27,1,5.68,5.68,0,0,1,2.14,1.43,3.45,3.45,0,0,1,.88,2.46A4.35,4.35,0,0,1,289,108.6a10.71,10.71,0,0,1-9.93,0Z"/><path class="cls-1" d="M32.71,48.65A14.87,14.87,0,0,0,26,47a14.53,14.53,0,0,0-12.81,7.48,15.5,15.5,0,0,0-1.94,7.69,15.65,15.65,0,0,0,1.94,7.71,14.55,14.55,0,0,0,5.33,5.54,14.26,14.26,0,0,0,7.48,2,15.6,15.6,0,0,0,6.61-1.56,20.89,20.89,0,0,0,3.93-2.38,3,3,0,0,1,4.08.38l2.35,2.55a3.09,3.09,0,0,1-.32,4.46A29.47,29.47,0,0,1,35.89,85a25.3,25.3,0,0,1-10.48,2.35A25.86,25.86,0,0,1,12.46,84.1a24.12,24.12,0,0,1-9.14-9A25.17,25.17,0,0,1,0,62.25a24.21,24.21,0,0,1,12.7-21.6A26.89,26.89,0,0,1,25.82,37.4a26.4,26.4,0,0,1,10.39,2.18,27.29,27.29,0,0,1,6.44,3.83,3.07,3.07,0,0,1,.45,4.33l-2.39,2.94a3.09,3.09,0,0,1-4.42.35A17.83,17.83,0,0,0,32.71,48.65Z"/><path class="cls-1" d="M278.19,40.78a24.63,24.63,0,0,1,0,43.13,27.87,27.87,0,0,1-26.16,0,24.26,24.26,0,0,1-12.67-21.62A24.2,24.2,0,0,1,252,40.78a28.18,28.18,0,0,1,26.2,0Zm-19.61,7.88a14.83,14.83,0,0,0-6.14,5.94,15.9,15.9,0,0,0,0,15.46,15.47,15.47,0,0,0,6.15,6,14.16,14.16,0,0,0,13.92-.39,14.72,14.72,0,0,0,5.27-5.57,15.9,15.9,0,0,0,1.95-7.8,15.53,15.53,0,0,0-1.95-7.69,14.75,14.75,0,0,0-5.27-5.53,13.84,13.84,0,0,0-8.1-2A14.13,14.13,0,0,0,258.58,48.66Z"/></g></g></svg>